<?xml version="1.0" encoding="UTF-8" standalone="no"?>
<!DOCTYPE svg PUBLIC "-//W3C//DTD SVG 1.1//EN" "http://www.w3.org/Graphics/SVG/1.1/DTD/svg11.dtd">
<svg version="1.1" xmlns="http://www.w3.org/2000/svg" xmlns:xlink="http://www.w3.org/1999/xlink" preserveAspectRatio="xMidYMid meet" viewBox="0 0 300 300" width="300" height="300"><defs><path d="M285.3 8.02C290.48 8.02 294.67 12.22 294.67 17.4C294.67 72.82 294.67 229.71 294.67 285.13C294.67 290.31 290.48 294.51 285.3 294.51C229.7 294.51 72.26 294.51 16.66 294.51C11.48 294.51 7.29 290.31 7.29 285.13C7.29 229.71 7.29 72.82 7.29 17.4C7.29 12.22 11.48 8.02 16.66 8.02C72.26 8.02 229.7 8.02 285.3 8.02Z" id="d53cAqT06"></path><path d="M13.59 289.1L288.37 14.33L13.59 289.1Z" id="b1TejVro0j"></path><path d="" id="a6899TkmL"></path><path d="" id="czYjhtyKQ"></path><path d="M240.62 30.54L28.91 240.45L28.91 30.54L240.62 30.54Z" id="cAqxBUg76"></path><path d="M64.04 272.89L273.05 62.98L273.05 272.89L64.04 272.89Z" id="a5x7rzruAL"></path></defs><g><g><g><g><filter id="shadow1493999" x="-1.71" y="-0.98" width="306.39" height="305.49" filterUnits="userSpaceOnUse" primitiveUnits="userSpaceOnUse"><feFlood></feFlood><feComposite in2="SourceAlpha" operator="in"></feComposite><feGaussianBlur stdDeviation="1"></feGaussianBlur><feOffset dx="1" dy="1" result="afterOffset"></feOffset><feFlood flood-color="#232323" flood-opacity="0.5"></feFlood><feComposite in2="afterOffset" operator="in"></feComposite><feMorphology operator="dilate" radius="1"></feMorphology><feComposite in2="SourceAlpha" operator="out"></feComposite></filter><path d="M285.3 8.02C290.48 8.02 294.67 12.22 294.67 17.4C294.67 72.82 294.67 229.71 294.67 285.13C294.67 290.31 290.48 294.51 285.3 294.51C229.7 294.51 72.26 294.51 16.66 294.51C11.48 294.51 7.29 290.31 7.29 285.13C7.29 229.71 7.29 72.82 7.29 17.4C7.29 12.22 11.48 8.02 16.66 8.02C72.26 8.02 229.7 8.02 285.3 8.02Z" id="g2wIbWswKY" fill="white" fill-opacity="1" filter="url(#shadow1493999)"></path></g><use xlink:href="#d53cAqT06" opacity="1" fill="#232323" fill-opacity="1"></use><g><use xlink:href="#d53cAqT06" opacity="1" fill-opacity="0" stroke="#ffffff" stroke-width="10" stroke-opacity="1"></use></g></g><g><g><filter id="shadow15151030" x="4.59" y="5.33" width="293.77" height="293.77" filterUnits="userSpaceOnUse" primitiveUnits="userSpaceOnUse"><feFlood></feFlood><feComposite in2="SourceAlpha" operator="in"></feComposite><feGaussianBlur stdDeviation="1"></feGaussianBlur><feOffset dx="1" dy="1" result="afterOffset"></feOffset><feFlood flood-color="#232323" flood-opacity="0.5"></feFlood><feComposite in2="afterOffset" operator="in"></feComposite><feMorphology operator="dilate" radius="1"></feMorphology><feComposite in2="SourceAlpha" operator="out"></feComposite></filter><path d="M13.59 289.1L288.37 14.33L13.59 289.1Z" id="c1OpK84n6U" fill="white" fill-opacity="1" filter="url(#shadow15151030)"></path></g><g><use xlink:href="#b1TejVro0j" opacity="1" fill-opacity="0" stroke="#ffffff" stroke-width="10" stroke-opacity="1"></use></g></g><g><g><use xlink:href="#a6899TkmL" opacity="1" fill-opacity="0" stroke="#7d3439" stroke-width="10" stroke-opacity="1"></use></g></g><g><g><use xlink:href="#czYjhtyKQ" opacity="1" fill-opacity="0" stroke="#6b4144" stroke-width="10" stroke-opacity="1"></use></g></g><g><g><filter id="shadow264785" x="19.91" y="21.54" width="230.71" height="228.91" filterUnits="userSpaceOnUse" primitiveUnits="userSpaceOnUse"><feFlood></feFlood><feComposite in2="SourceAlpha" operator="in"></feComposite><feGaussianBlur stdDeviation="1"></feGaussianBlur><feOffset dx="1" dy="1" result="afterOffset"></feOffset><feFlood flood-color="#232323" flood-opacity="0.5"></feFlood><feComposite in2="afterOffset" operator="in"></feComposite><feMorphology operator="dilate" radius="1"></feMorphology><feComposite in2="SourceAlpha" operator="out"></feComposite></filter><path d="M240.62 30.54L28.91 240.45L28.91 30.54L240.62 30.54Z" id="cQRXxUu8o" fill="white" fill-opacity="1" filter="url(#shadow264785)"></path></g><g><use xlink:href="#cAqxBUg76" opacity="1" fill-opacity="0" stroke="#ffffff" stroke-width="10" stroke-opacity="1"></use></g></g><g><g><filter id="shadow10256186" x="55.04" y="53.98" width="228.01" height="228.91" filterUnits="userSpaceOnUse" primitiveUnits="userSpaceOnUse"><feFlood></feFlood><feComposite in2="SourceAlpha" operator="in"></feComposite><feGaussianBlur stdDeviation="1"></feGaussianBlur><feOffset dx="1" dy="1" result="afterOffset"></feOffset><feFlood flood-color="#232323" flood-opacity="0.5"></feFlood><feComposite in2="afterOffset" operator="in"></feComposite><feMorphology operator="dilate" radius="1"></feMorphology><feComposite in2="SourceAlpha" operator="out"></feComposite></filter><path d="M64.04 272.89L273.05 62.98L273.05 272.89L64.04 272.89Z" id="b1chKr57Dd" fill="white" fill-opacity="1" filter="url(#shadow10256186)"></path></g><g><use xlink:href="#a5x7rzruAL" opacity="1" fill-opacity="0" stroke="#ffffff" stroke-width="10" stroke-opacity="1"></use></g></g></g></g></svg>